<svg enable-background="new 0 0 595.3 841.9" viewBox="0 0 595.3 841.9" xmlns="http://www.w3.org/2000/svg"><g fill="#fff"><path clip-rule="evenodd" d="m199.9 401.1c3.7-9.1 24.1-53.8 74-64.1v.2c.1 0 18.4-1.8 44.1-.5 51.3 9.6 71.9 55.7 75.4 64.9l-55.6-12.6h-.4-81-.3zm84.8-66.1c.7-.7 2.1-2.2 3.3-3 4.9-.2 10.8-.2 17.6-.1 1.2.8 2.6 2.2 3.3 3-9.8-.3-18.2-.2-24.2.1zm4.8-4.5c.5-1.1 1.7-2.7 3.7-3l7.3.1c1.9.2 3.1 1.8 3.7 2.8-5.6-.1-10.5-.1-14.7.1z" fill-rule="evenodd"/><path d="m297.3 325.9h-4v-15.4l-2.5-.1c-1.4 2-3.4 2.1-5.2 1.5-.7-.2-1.4-.6-2-1s-1.2-.8-1.6-1.2c-1.2-1-1.7-2.4-1.7-2.4 1.1-1.7 2.8-3.6 4.5-4.7.7-.4 1.5-.7 2.3-.8s1.6.1 2.4.6c.5.4 1 .9 1.5 1.6h2.5v-2.7c-2.9-2.9-2.4-5-.5-6.9.9-1 2.2-1.8 3.5-2.7l.1-.1.5-.4.6.4c1.3.9 2.6 1.8 3.5 2.7 1.9 1.9 2.4 4-.5 6.9v2.7h2.5c.5-.7 1-1.3 1.5-1.6.8-.5 1.6-.7 2.4-.6s1.6.3 2.3.8c1.8 1 3.4 3 4.5 4.7 0 .1-.5 1.4-1.7 2.4-.5.4-1 .8-1.6 1.2-.6.4-1.3.7-2 1-1.9.7-3.8.5-5.2-1.5l-2.5.1v15.4h-3.6zm-2.5-1.4h4.9v-15.4l4.7-.1.2.3c1 1.6 2.4 1.7 3.8 1.2.6-.2 1.2-.5 1.7-.8.6-.4 1.1-.7 1.5-1.1.7-.5 1.4-.5 1.4-.5-1-1.6-2.5-3.3-4.1-4.2-.6-.3-1.1-.5-1.7-.6-.5-.1-1 .1-1.5.4s-.9.8-1.3 1.5l-.2.4h-4.8v-4.7l.2-.2c2.3-2.3 2-3.8.7-5.1-.8-.8-1.9-1.6-3.1-2.4-1.2.8-2.3 1.6-3.1 2.4-1.3 1.3-1.6 2.8.7 5.1l.2.2v4.7h-4.8l-.2-.4c-.4-.7-.9-1.2-1.3-1.5-.5-.3-1-.5-1.5-.4-.5 0-1.1.3-1.7.6-1.6.9-3 2.7-4.1 4.2 0 0 .8-.1 1.4.5.5.3 1 .7 1.5 1.1.5.3 1.1.6 1.7.8 1.4.5 2.8.4 3.8-1.2l.2-.3 4.7.1z"/><path d="m101.3 462.8h391.2v1.6h-391.2z"/><path d="m201.1 456.5h191.3l.1-51.8-55.3-12.5h-80.6l-55.7 12zm192 1.4h-193.5l-.1-54.8 56.9-12.3h.1 80.7.1l56.5 12.8c0 18.1-.1 36.3-.1 54.4h-.6z"/><path d="m259.3 397v55.6h-1.5v-55.6z"/><path d="m336 397v55.6h-1.5v-55.6z"/><path d="m280.7 409.8v39.7h32.6v-40l2.3 2.1-.1 40.1h-37l-.1-39.9z"/><path d="m296.9 404.1c-3.1 0-6 1.3-8.1 3.4s-3.4 5-3.4 8.1v31.2h-2.9v-31.2c0-4 1.6-7.6 4.2-10.2s6.2-4.2 10.1-4.2c4 0 7.6 1.6 10.2 4.2s4.2 6.2 4.2 10.2v31.2h-2.9v-31.2c0-3.2-1.3-6-3.4-8.1-1.9-2.1-4.8-3.4-8-3.4z"/><path d="m352.9 413v36.7h23.1v2.2h-25.3v-38.9z"/><path d="m373.4 447.4v-28c-.5-1.5-6.3-14-16.7-6 .4-7.2 14.8-8.3 18.9 5.5l.1.3v28.2z"/><g clip-rule="evenodd" fill-rule="evenodd"><path d="m367.4 418.4c0-1.8-1.5-3.3-3.3-3.3s-3.3 1.5-3.3 3.3 1.5 3.3 3.3 3.3 3.3-1.5 3.3-3.3z"/><path d="m367.4 429.6c0-1.8-1.5-3.3-3.3-3.3s-3.3 1.5-3.3 3.3 1.5 3.3 3.3 3.3c1.8.1 3.3-1.4 3.3-3.3z"/><path d="m367.4 440.9c0-1.8-1.5-3.3-3.3-3.3s-3.3 1.5-3.3 3.3 1.5 3.3 3.3 3.3 3.3-1.5 3.3-3.3z"/></g><path d="m240.9 413v36.7h-23.2v2.2h25.4v-38.9z"/><path d="m220.4 447.4v-28c.5-1.5 6.3-14 16.7-6-.4-7.2-14.8-8.3-18.9 5.5v.3 28.2z"/><path clip-rule="evenodd" d="m226.4 418.4c0-1.8 1.5-3.3 3.3-3.3s3.3 1.5 3.3 3.3-1.5 3.3-3.3 3.3-3.3-1.5-3.3-3.3z" fill-rule="evenodd"/><path clip-rule="evenodd" d="m226.4 429.6c0-1.8 1.5-3.3 3.3-3.3s3.3 1.5 3.3 3.3-1.5 3.3-3.3 3.3c-1.8.1-3.3-1.4-3.3-3.3z" fill-rule="evenodd"/><path clip-rule="evenodd" d="m226.4 440.9c0-1.8 1.5-3.3 3.3-3.3s3.3 1.5 3.3 3.3-1.5 3.3-3.3 3.3-3.3-1.5-3.3-3.3z" fill-rule="evenodd"/><path d="m212.6 548.9.7.1-2.6 8h-22.7v-.9h1.1c1.3 0 2.1-.4 2.6-1.1.3-.4.4-1.6.4-3.1v-19c0-1.9-.1-3-.6-3.4-.6-.6-1.4-1-2.6-1h-.9v-.9h13.3v.9c-1.6 0-2.7.1-3.3.4s-1 .7-1.3 1.1-.3 1.6-.3 3.3v18.5c0 1.1.1 2 .3 2.4.1.3.4.6.9.7.4.1 1.4.1 3.4.1h2.1c2.3 0 3.9-.1 4.7-.4.9-.3 1.7-1 2.4-1.7 1-.8 1.7-2.1 2.4-4zm22.9-1.7h-11.5l-2 4.6c-.6 1.1-.7 2-.7 2.6 0 .4.3.9.7 1.1.4.3 1.3.6 2.7.6v.9h-9.3v-1c1.3-.1 2-.6 2.4-.9.7-.7 1.6-2.1 2.4-4.1l10.4-24.1h.7l10.1 24.4c.9 2 1.6 3.3 2.3 3.9s1.6.9 2.9 1v.9h-11.6v-.9c1.1 0 2-.3 2.4-.6s.6-.7.6-1.3-.3-1.6-.9-3zm-.8-1.6-5-11.8-5.1 11.8zm51.7-17.9v.9c-.7 0-1.4.1-1.9.4-.4.3-1 .7-1.4 1.6-.3.6-.7 1.7-1.4 3.6l-8.1 23.7h-.9l-6.7-18.8-6.6 18.8h-.7l-8.7-24.4c-.6-1.9-1-2.9-1.3-3.3-.3-.6-.7-1-1.1-1.3-.6-.3-1.1-.4-2-.4v-.9h10.8v.9h-.6c-.7 0-1.3.1-1.7.6-.4.3-.6.7-.6 1.3s.3 1.7 1 3.6l5.8 16.4 4.9-14-.9-2.4-.7-2c-.3-.7-.6-1.4-1-2-.1-.3-.4-.6-.7-.7-.4-.3-.7-.4-1-.6-.3 0-.7-.1-1.3-.1v-.9h11.4v.9h-1c-.9 0-1.4.1-1.7.6-.4.3-.6.9-.6 1.4 0 .7.3 2.1 1 3.9l5.7 16 5.6-16.1c.6-1.9 1-3 1-3.7 0-.3-.1-.7-.3-1-.1-.3-.4-.6-.7-.6-.6-.1-1.3-.3-2.1-.3v-.9h8.5zm20.5 1.5v11.6h5.3c1.3 0 2.1-.3 2.7-.9s1-1.6 1.1-3.3h.9v10h-.9c0-1.1-.1-2-.4-2.6s-.7-1-1.1-1.1c-.6-.3-1.3-.4-2.3-.4h-5.3v9.3c0 1.4.1 2.4.3 3 .1.4.4.7.9 1 .6.3 1.3.6 2 .6h1v.9h-12.6v-.9h1c1.1 0 2.1-.3 2.6-1 .3-.4.6-1.6.6-3.3v-19c0-1.6 0-2.4-.3-3-.1-.4-.4-.7-.9-1-.6-.4-1.3-.6-2-.6h-1v-.9h21.8l.3 6.4h-.7c-.4-1.4-.9-2.4-1.3-3-.6-.6-1.1-1.1-1.9-1.4s-1.9-.4-3.4-.4zm29.3 27v.9h-12.6v-.9h1c1.3 0 2.1-.3 2.7-1 .3-.4.6-1.6.6-3.3v-19c0-1.6-.1-2.4-.3-3-.1-.4-.4-.7-.9-1-.6-.4-1.3-.6-2-.6h-1v-.9h12.6v.9h-1c-1.1 0-2 .4-2.6 1-.4.4-.6 1.6-.6 3.3v19c0 1.4.1 2.4.3 3 .1.4.4.7 1 1s1.3.6 2 .6zm31.1.8h-7.8l-10-13.7c-.7 0-1.3 0-1.7 0-.1 0-.4 0-.6 0-.1 0-.4 0-.7 0v8.6c0 1.9.1 3 .6 3.4.6.6 1.4 1 2.4 1h1.1v.9h-12.6v-.9h1c1.3 0 2.1-.4 2.7-1.1.3-.4.4-1.6.4-3.1v-19c0-1.9-.1-3-.6-3.4-.6-.6-1.4-1-2.6-1h-1v-.9h10.7c3.1 0 5.4.3 6.8.7 1.6.4 2.7 1.3 3.7 2.6s1.6 2.7 1.6 4.4c0 1.9-.6 3.4-1.7 4.7s-3 2.3-5.4 2.9l6.1 8.4c1.4 2 2.6 3.3 3.6 3.9s2.3 1 3.9 1.1v.5zm-20.9-15.1h.7.4c2.7 0 4.9-.6 6.3-1.9s2.1-2.7 2.1-4.7c0-1.9-.6-3.3-1.7-4.4s-2.6-1.7-4.6-1.7c-.9 0-2 .1-3.4.4v12.3zm38.6 15.1-11.4-24.7v19.7c0 1.9.1 3 .6 3.4.6.6 1.4.9 2.6.9h1v.9h-10.3v-.9h1c1.3 0 2.1-.4 2.7-1.1.3-.4.4-1.6.4-3.1v-19.3c0-1.3-.1-2.3-.4-2.9-.1-.4-.6-.7-1.1-1s-1.4-.4-2.6-.4v-.9h8.4l10.6 23 10.6-23h8.4v.9h-1.1c-1.3 0-2.1.4-2.7 1.1-.3.4-.4 1.6-.4 3.1v19.3c0 1.9.1 3 .6 3.4.6.6 1.4.9 2.6.9h1v.9h-12.6v-.9h1c1.3 0 2.1-.4 2.7-1.1.3-.4.4-1.6.4-3.1v-19.7l-11.5 24.6z"/><path d="m163.4 474.4v13.5h-1.1c-.4-2.6-1-4.6-1.9-6.2-.9-1.5-2.2-2.8-3.8-3.7s-3.4-1.4-5.2-1.4c-2 0-3.7.6-4.9 1.8-1.3 1.2-2 2.6-2 4.2 0 1.2.4 2.3 1.2 3.3 1.2 1.4 4.1 3.3 8.6 5.7 3.7 2 6.1 3.5 7.5 4.5 1.3 1 2.4 2.3 3.1 3.7s1.1 2.9 1.1 4.5c0 2.9-1.2 5.5-3.4 7.7-2.3 2.1-5.3 3.2-8.9 3.2-1.1 0-2.2-.1-3.2-.3-.6-.1-1.8-.4-3.7-1.1-1.9-.6-3.1-.9-3.6-.9s-.9.1-1.2.4-.5.9-.6 1.8h-1.1v-13.4h1.1c.5 2.8 1.2 4.9 2 6.3s2.1 2.6 3.9 3.5c1.7.9 3.7 1.4 5.7 1.4 2.4 0 4.3-.7 5.7-1.9 1.4-1.3 2.1-2.8 2.1-4.5 0-.9-.3-1.9-.8-2.9s-1.3-1.9-2.4-2.8c-.8-.6-2.8-1.8-6.2-3.7-3.3-1.9-5.7-3.3-7.2-4.5s-2.5-2.4-3.2-3.7c-.8-1.3-1.1-2.9-1.1-4.5 0-2.8 1.1-5.3 3.3-7.3 2.1-2 4.9-3 8.2-3 2.1 0 4.3.5 6.6 1.5 1.1.5 1.8.7 2.3.7s.9-.1 1.2-.4.5-.9.8-1.8h1.1zm32.9 27h-15.2l-2.6 6.1c-.7 1.5-1 2.6-1 3.4 0 .6.3 1.1.8 1.6.6.4 1.8.7 3.7.8v1.1h-12.4v-1.1c1.6-.3 2.7-.7 3.2-1.1 1-.9 2-2.8 3.3-5.6l13.8-32.2h1l13.6 32.6c1.1 2.6 2.1 4.3 3 5.1s2.1 1.2 3.7 1.3v1.1h-15.5v-1.1c1.6-.1 2.6-.3 3.2-.8s.8-1 .8-1.6c0-.8-.4-2.2-1.1-4zm-.9-2.1-6.6-15.8-6.8 15.8zm15.7-24h10.6l24 29.4v-22.6c0-2.4-.3-3.9-.8-4.5-.7-.8-1.9-1.2-3.4-1.2h-1.5v-1.1h13.8v1.1h-1.4c-1.7 0-2.9.5-3.6 1.5-.4.6-.6 2-.6 4.2v33h-1.1l-25.8-31.5v24.1c0 2.4.3 3.9.8 4.5.7.8 1.9 1.2 3.4 1.2h1.4v1.1h-13.8v-1.1h1.4c1.7 0 2.9-.5 3.6-1.5.4-.6.6-2 .6-4.2v-27.3c-1.1-1.3-2-2.2-2.6-2.6s-1.4-.8-2.6-1.2c-.5-.2-1.4-.3-2.5-.3v-1zm77.6 0 .4 9.2h-1.1c-.2-1.6-.5-2.8-.8-3.5-.6-1.1-1.4-1.9-2.4-2.4s-2.3-.8-3.9-.8h-5.5v29.9c0 2.4.3 3.9.8 4.5.7.8 1.9 1.2 3.4 1.2h1.3v1.1h-16.7v-1.1h1.4c1.7 0 2.9-.5 3.6-1.5.4-.6.7-2 .7-4.2v-29.9h-4.7c-1.8 0-3.1.1-3.9.4-1 .4-1.9 1.1-2.6 2.1s-1.1 2.4-1.3 4.2h-1.1l.4-9.2zm24.7-.9c5.1 0 9.5 1.9 13.2 5.8 3.7 3.8 5.6 8.6 5.6 14.4 0 6-1.9 10.9-5.6 14.8s-8.3 5.9-13.6 5.9-9.9-1.9-13.5-5.7c-3.7-3.8-5.5-8.8-5.5-14.9 0-6.2 2.1-11.3 6.3-15.2 3.6-3.4 8-5.1 13.1-5.1zm-.6 2.1c-3.5 0-6.3 1.3-8.4 3.9-2.6 3.2-4 8-4 14.2 0 6.4 1.4 11.3 4.1 14.7 2.1 2.6 4.9 4 8.3 4 3.7 0 6.7-1.5 9.1-4.3 2.4-2.9 3.6-7.4 3.6-13.6 0-6.7-1.3-11.7-4-15-2-2.6-4.9-3.9-8.7-3.9zm62.3 38h-10.5l-13.3-18.3c-1 0-1.7 0-2.4 0-.2 0-.5 0-.8 0s-.6 0-.9 0v11.4c0 2.4.3 4 .8 4.6.7.8 1.8 1.2 3.3 1.2h1.5v1.1h-16.8v-1.1h1.5c1.6 0 2.9-.5 3.6-1.6.4-.6.6-2 .6-4.2v-25.3c0-2.5-.3-4-.8-4.6-.8-.8-1.9-1.3-3.3-1.3h-1.5v-1.1h14.3c4.2 0 7.3.3 9.2.9 2 .6 3.7 1.7 5 3.3 1.4 1.6 2 3.6 2 5.8 0 2.4-.8 4.5-2.4 6.3s-4 3-7.3 3.7l8.1 11.2c1.9 2.6 3.5 4.3 4.8 5.2 1.3.8 3.1 1.4 5.2 1.6zm-27.8-20.2h.9.7c3.7 0 6.5-.8 8.3-2.4 1.9-1.6 2.9-3.7 2.9-6.2 0-2.4-.8-4.4-2.3-6-1.5-1.5-3.5-2.3-6-2.3-1.1 0-2.6.2-4.5.5zm45.5 19.1v1.1h-16.8v-1.1h1.4c1.6 0 2.8-.4 3.5-1.4.5-.6.7-2.1.7-4.5v-25.3c0-2-.1-3.3-.4-3.9-.2-.5-.6-.9-1.2-1.2-.8-.5-1.7-.7-2.7-.7h-1.3v-1.1h16.8v1.1h-1.4c-1.6 0-2.8.5-3.5 1.4-.5.6-.7 2.1-.7 4.5v25.3c0 2 .1 3.3.4 3.9.2.5.6.9 1.2 1.2.8.4 1.7.7 2.6.7zm1.2-38.1h10.5l24 29.4v-22.6c0-2.4-.3-3.9-.8-4.5-.7-.8-1.9-1.2-3.4-1.2h-1.4v-1.1h13.8v1.1h-1.4c-1.7 0-2.9.5-3.6 1.5-.4.6-.7 2-.7 4.2v33h-1l-25.8-31.5v24.1c0 2.4.3 3.9.8 4.5.7.8 1.9 1.2 3.4 1.2h1.4v1.1h-13.8v-1.1h1.4c1.7 0 2.9-.5 3.6-1.5.4-.6.6-2 .6-4.2v-27.3c-1.1-1.3-2-2.2-2.6-2.6s-1.4-.8-2.6-1.2c-.6-.2-1.4-.3-2.5-.3v-1zm60.5 38.1v1.1h-16.7v-1.1h1.4c1.6 0 2.8-.4 3.5-1.4.5-.6.7-2.1.7-4.5v-25.3c0-2-.1-3.3-.4-3.9-.2-.5-.6-.9-1.2-1.2-.8-.5-1.7-.7-2.6-.7h-1.4v-1.1h16.7v1.1h-1.4c-1.6 0-2.8.5-3.5 1.4-.4.6-.7 2.1-.7 4.5v25.3c0 2 .1 3.3.4 3.9.2.5.6.9 1.2 1.2.8.4 1.7.7 2.6.7z"/></g></svg>